<?xml version="1.0" encoding="utf-8"?>
<svg viewBox="0 0 500 500" width="500" height="500" xmlns="http://www.w3.org/2000/svg">
  <defs>
    <radialGradient gradientUnits="userSpaceOnUse" cx="8182.174" cy="9091.586" r="7998.085" id="gradient-0" gradientTransform="matrix(1.491964, -0.004195, 0.003472, 1.235404, -4056.906352, -2105.875537)">
      <stop offset="0" style="stop-color: rgba(255, 159, 16, 1)"/>
      <stop offset="1" style="stop-color: rgb(205, 0, 0);"/>
    </radialGradient>
  </defs>
  <g transform="matrix(0.024958, 0, 0, -0.024958, 46.823963, 413.037354)" fill="#000000" stroke="none" style="">
    <path d="M 5720 15956 C 5214 15861 4609 15704 4130 15543 C 3434 15310 2883 15056 2402 14747 L 2260 14655 L 2219 14532 C 2100 14166 2040 13791 2040 13413 C 2040 12844 2175 12336 2441 11908 C 2469 11863 2482 11834 2472 11839 C 2439 11857 2251 12036 2183 12115 C 1738 12631 1510 13280 1510 14036 C 1510 14195 1507 14230 1496 14230 C 1489 14230 1431 14176 1367 14111 C 850 13574 465 12912 312 12295 C 253 12060 254 12070 291 11977 C 386 11738 569 11421 753 11175 C 1010 10833 1366 10481 1725 10214 C 1931 10062 2234 9872 2452 9761 C 2489 9742 2518 9725 2516 9723 C 2508 9715 2245 9795 2088 9854 C 1879 9932 1782 9974 1600 10065 C 975 10378 473 10802 114 11320 L 35 11435 L 29 11389 C 13 11282 -2 10895 4 10765 C 27 10282 75 9981 186 9639 C 329 9195 626 8796 915 8660 C 1155 8548 1518 8431 2020 8306 C 2520 8181 3006 8081 3730 7955 C 3909 7924 4057 7896 4060 7893 C 4067 7885 3622 7899 3330 7916 C 2533 7961 1753 8071 1192 8216 C 1118 8235 1053 8249 1048 8248 C 1033 8243 1278 8008 1425 7886 C 1710 7649 2076 7391 2415 7188 C 3292 6663 4275 6266 5395 5987 C 5588 5938 5968 5858 5987 5862 C 5995 5864 5962 5883 5914 5904 C 5780 5963 5493 6107 5330 6197 C 4843 6465 4486 6724 4267 6969 C 4189 7055 4115 7159 4124 7168 C 4135 7179 4543 7049 4865 6932 C 5255 6790 5651 6626 6065 6435 C 6276 6338 6762 6095 6898 6020 C 6981 5973 6983 5969 6949 5856 C 6817 5411 6417 4805 5866 4211 C 5802 4142 5771 4102 5774 4091 C 5783 4066 5854 3806 5921 3560 C 5955 3436 5986 3331 5990 3327 C 6008 3307 6671 4183 6895 4523 C 6927 4571 6955 4609 6956 4607 C 6970 4593 6776 4091 6654 3827 C 6488 3468 6213 2951 6027 2652 C 6014 2632 6000 2610 5997 2603 C 5992 2596 6008 2579 6037 2559 C 6064 2541 6126 2494 6175 2455 C 6600 2118 6994 1625 7266 1090 L 7335 955 L 7341 1690 C 7348 2487 7358 2725 7405 3147 C 7434 3405 7515 3874 7539 3918 C 7543 3925 7552 3842 7559 3733 C 7586 3284 7643 2602 7690 2143 C 7696 2092 7705 2006 7710 1953 C 7752 1548 7858 831 7921 525 C 7951 377 8038 19 8046 11 C 8054 2 8061 20 8080 106 C 8125 317 8197 785 8249 1225 C 8325 1854 8425 3013 8460 3665 C 8467 3781 8474 3886 8477 3900 C 8482 3921 8485 3918 8496 3875 C 8517 3800 8578 3493 8600 3356 C 8683 2836 8765 1877 8786 1177 C 8790 1052 8796 950 8799 950 C 8802 950 8845 1025 8894 1116 C 9093 1490 9312 1822 9549 2105 C 9664 2242 9846 2435 9935 2513 C 9979 2552 10016 2587 10018 2591 C 10020 2595 10006 2623 9987 2652 C 9969 2681 9911 2779 9858 2870 C 9589 3338 9381 3755 9214 4165 C 9140 4349 9047 4610 9054 4617 C 9055 4619 9073 4594 9093 4562 C 9191 4403 9522 3950 9803 3590 C 9891 3477 9973 3373 9984 3358 C 9996 3343 10010 3331 10016 3331 C 10023 3330 10042 3383 10060 3448 C 10077 3512 10114 3642 10140 3735 C 10167 3829 10200 3951 10215 4007 L 10242 4108 L 10125 4237 C 9724 4675 9419 5102 9212 5516 C 9107 5726 9018 5962 9037 5980 C 9053 5995 9806 6369 9995 6455 C 10415 6647 10809 6809 11215 6955 C 11444 7038 11857 7170 11885 7170 C 11915 7170 11797 7016 11671 6890 C 11436 6656 11101 6424 10636 6171 C 10484 6088 10058 5880 10041 5880 C 10036 5880 10028 5875 10024 5868 C 10014 5853 10054 5860 10355 5926 C 11517 6182 12628 6612 13565 7168 C 13896 7365 14269 7623 14525 7834 C 14737 8008 14980 8233 14968 8245 C 14965 8248 14891 8233 14804 8211 C 14097 8034 13174 7923 12185 7894 C 12059 7891 11958 7890 11961 7894 C 11964 7898 12057 7916 12166 7935 C 13588 8179 14534 8410 15053 8640 C 15191 8702 15221 8722 15353 8850 C 15702 9185 15913 9705 15985 10405 C 15999 10532 16001 10640 15997 10968 C 15995 11192 15989 11388 15984 11403 C 15975 11431 15973 11429 15905 11328 C 15461 10672 14756 10153 13876 9835 C 13753 9791 13518 9720 13495 9720 C 13490 9720 13539 9749 13605 9784 C 14423 10215 15114 10861 15527 11580 C 15640 11776 15750 12016 15750 12065 C 15750 12079 15739 12139 15726 12198 C 15594 12779 15310 13329 14871 13860 C 14774 13978 14533 14230 14518 14230 C 14514 14230 14510 14165 14510 14086 C 14510 13695 14443 13283 14329 12973 C 14202 12628 14040 12350 13820 12103 C 13740 12013 13541 11826 13533 11834 C 13531 11835 13560 11886 13596 11946 C 14014 12635 14091 13591 13803 14504 L 13755 14653 L 13628 14736 C 12890 15216 11869 15609 10660 15879 C 10536 15907 10372 15941 10295 15954 C 10218 15968 10142 15982 10126 15985 C 10110 15988 10098 15988 10101 15986 C 10103 15983 10188 15950 10288 15911 C 10905 15673 11465 15331 11869 14946 C 11955 14864 12132 14658 12208 14553 C 12535 14098 12683 13598 12650 13065 C 12618 12572 12443 11981 12252 11728 L 12209 11672 L 12269 11580 C 12582 11105 12731 10606 12691 10175 C 12669 9943 12628 9798 12525 9583 C 12351 9221 12056 8893 11630 8589 C 11235 8307 10624 8002 10127 7839 C 10003 7798 9999 7803 10113 7855 C 10343 7960 10702 8159 10945 8318 C 11418 8626 11794 8979 12033 9340 C 12120 9471 12238 9708 12279 9836 C 12382 10154 12394 10477 12314 10759 C 12305 10790 12294 10819 12290 10823 C 12286 10828 12266 10792 12245 10743 C 11962 10081 11465 9528 10752 9082 C 10507 8929 10180 8767 9913 8666 C 9836 8637 9835 8636 9825 8550 C 9780 8187 9543 7741 9192 7361 L 9105 7266 L 9093 7366 C 9087 7420 9077 7506 9071 7555 C 9053 7705 9032 7886 9010 8060 C 8991 8218 8946 8606 8915 8890 C 8906 8964 8898 9034 8895 9046 C 8891 9062 8908 9082 8968 9135 C 9072 9226 9247 9415 9330 9525 C 9415 9638 9509 9801 9551 9905 C 9614 10064 9636 10258 9606 10398 C 9591 10469 9583 10481 9574 10454 C 9474 10172 9290 9968 9025 9841 C 8844 9755 8692 9721 8430 9710 C 8274 9704 8232 9698 8160 9677 C 7546 9490 7019 9086 6799 8634 C 6742 8517 6717 8407 6722 8301 C 6724 8254 6731 8207 6737 8196 C 6746 8180 6751 8187 6778 8244 C 6909 8524 7202 8754 7586 8879 C 7732 8926 7760 8933 7760 8921 C 7760 8916 7728 8841 7689 8754 C 7650 8666 7589 8532 7555 8455 C 7520 8378 7448 8218 7395 8100 C 7249 7778 7125 7501 7058 7350 C 7025 7276 6994 7211 6988 7205 C 6975 7192 6815 7360 6682 7525 C 6400 7873 6223 8249 6184 8581 L 6178 8636 L 6016 8700 C 5928 8735 5772 8805 5670 8856 C 4782 9298 4115 9948 3795 10685 C 3764 10757 3735 10819 3730 10824 C 3720 10834 3698 10764 3672 10645 C 3645 10519 3648 10201 3677 10055 C 3764 9629 3993 9243 4391 8855 C 4746 8509 5192 8207 5774 7919 C 5895 7859 5989 7810 5984 7810 C 5944 7810 5520 7972 5301 8071 C 4189 8573 3507 9239 3349 9978 C 3323 10103 3312 10395 3329 10525 C 3376 10880 3504 11205 3743 11579 C 3785 11643 3801 11676 3794 11685 C 3629 11910 3522 12176 3435 12575 C 3373 12863 3356 13034 3363 13279 C 3373 13640 3459 13956 3630 14273 C 3948 14859 4553 15378 5359 15755 C 5515 15828 5865 15970 5890 15970 C 5895 15970 5902 15975 5905 15980 C 5913 15993 5926 15994 5720 15956" style="stroke: rgb(218, 85, 85); fill: url(#gradient-0);"/>
  </g>
  <text style="fill: rgb(103, 103, 103); font-family: Herculanum; font-size: 68px; font-weight: 700; white-space: pre;" x="111.919" y="452.163" transform="matrix(1, 0, 0, 1, -12.290553, 8.237489)">PHOENIX</text>
</svg>